<?xml version="1.0" encoding="UTF-8"?>
<!DOCTYPE svg PUBLIC "-//W3C//DTD SVG 1.1//EN" "http://www.w3.org/Graphics/SVG/1.1/DTD/svg11.dtd">
<svg xmlns="http://www.w3.org/2000/svg" version="1.1" width="257px" height="103px" style="shape-rendering:geometricPrecision; text-rendering:geometricPrecision; image-rendering:optimizeQuality; fill-rule:evenodd; clip-rule:evenodd" xmlns:xlink="http://www.w3.org/1999/xlink">
<g><path style="opacity:0.705" fill="#242226" d="M 150.5,-0.5 C 151.833,-0.5 153.167,-0.5 154.5,-0.5C 158.57,4.90393 162.237,10.5706 165.5,16.5C 165.392,17.4419 165.059,18.2753 164.5,19C 161.339,20.4131 158.339,22.0797 155.5,24C 161.151,25.8341 165.817,29.0008 169.5,33.5C 174.589,24.3237 179.422,14.9903 184,5.5C 185.667,4.16667 187.333,4.16667 189,5.5C 190.333,8.83333 191.667,12.1667 193,15.5C 193.893,16.0814 194.893,16.4148 196,16.5C 205.657,13.7107 215.49,12.8774 225.5,14C 228.624,14.4791 231.457,15.6457 234,17.5C 236.905,9.46581 242.405,6.96581 250.5,10C 253.314,11.4936 255.314,13.6603 256.5,16.5C 256.5,18.8333 256.5,21.1667 256.5,23.5C 254.123,37.9504 252.29,52.617 251,67.5C 250.955,70.334 250.121,72.834 248.5,75C 241.582,74.9465 234.748,74.1132 228,72.5C 228.219,64.1292 229.052,55.7958 230.5,47.5C 227.715,47.933 225.381,49.2663 223.5,51.5C 225.183,57.4092 226.017,63.4092 226,69.5C 223.592,71.9561 220.759,73.7894 217.5,75C 218.522,77.5448 219.688,80.0448 221,82.5C 221.72,84.1124 221.554,85.6124 220.5,87C 213.26,88.724 205.927,89.3907 198.5,89C 193.614,79.3916 189.114,69.5583 185,59.5C 181.9,66.8661 178.4,74.0328 174.5,81C 166.277,82.4381 157.943,82.9381 149.5,82.5C 150.493,87.6752 148.493,89.5086 143.5,88C 133.167,82.8333 122.833,77.6667 112.5,72.5C 111.809,77.3829 111.143,82.2162 110.5,87C 103.854,88.2366 97.1877,88.9033 90.5,89C 89.9505,87.1554 88.9505,85.6554 87.5,84.5C 78.69,88.6537 70.0233,88.487 61.5,84C 59.9512,82.786 58.7845,81.286 58,79.5C 58.9824,84.7731 59.649,90.1064 60,95.5C 54.1349,97.9505 48.3016,100.284 42.5,102.5C 41.1667,102.5 39.8333,102.5 38.5,102.5C 31.023,87.8778 24.3564,72.8778 18.5,57.5C 15.6735,58.9735 13.1735,58.6402 11,56.5C 7.30341,49.9956 3.47008,43.6622 -0.5,37.5C -0.5,36.1667 -0.5,34.8333 -0.5,33.5C 15.7266,21.256 33.7266,17.4226 53.5,22C 63.2834,25.9384 68.6167,33.1051 69.5,43.5C 74.8009,42.8227 80.1343,42.3227 85.5,42C 83.8988,41.7266 82.3988,41.2266 81,40.5C 80.7095,36.1368 80.2095,31.8035 79.5,27.5C 79.5288,25.9707 80.1955,24.804 81.5,24C 90.0274,21.1575 98.5274,18.3242 107,15.5C 108.333,16.1667 109.333,17.1667 110,18.5C 110.612,15.9683 112.112,15.1349 114.5,16C 119.167,20 123.833,24 128.5,28C 129.908,28.3152 131.241,27.9819 132.5,27C 132.626,25.0257 132.792,22.859 133,20.5C 139.318,13.8385 145.151,6.83855 150.5,-0.5 Z"/></g>
<g><path style="opacity:1" fill="#395b9a" d="M 151.5,1.5 C 152.675,1.28099 153.675,1.61432 154.5,2.5C 157.5,7.16667 160.5,11.8333 163.5,16.5C 159.036,19.5701 154.369,22.4034 149.5,25C 158.211,25.4008 164.544,29.4008 168.5,37C 166.833,39.3333 165.167,41.6667 163.5,44C 163.613,45.2798 164.28,46.1131 165.5,46.5C 172.5,33.1667 179.5,19.8333 186.5,6.5C 188.861,9.88777 190.694,13.5544 192,17.5C 196.578,18.5766 201.078,18.0766 205.5,16C 212.167,15.3333 218.833,15.3333 225.5,16C 229.048,16.4405 232.048,17.9405 234.5,20.5C 237.069,10.8811 242.735,8.38115 251.5,13C 255.034,17.0756 255.367,21.409 252.5,26C 253.059,26.7247 253.392,27.5581 253.5,28.5C 251.777,43.1805 249.943,57.8472 248,72.5C 247.275,73.0585 246.442,73.3918 245.5,73.5C 240.165,72.7729 234.832,72.1062 229.5,71.5C 229.939,62.7632 230.939,54.0965 232.5,45.5C 227.516,45.1574 223.85,47.1574 221.5,51.5C 223.571,57.0134 224.404,62.6801 224,68.5C 221.226,70.7971 218.392,72.9637 215.5,75C 217.562,78.6149 218.895,82.4483 219.5,86.5C 212.458,87.007 205.458,87.007 198.5,86.5C 194.671,76.1723 190.171,66.1723 185,56.5C 180.691,64.2856 176.525,72.1189 172.5,80C 164.812,80.8315 157.145,80.6648 149.5,79.5C 150.789,75.9562 152.456,72.6229 154.5,69.5C 152.282,68.9426 149.949,68.9426 147.5,69.5C 147.5,75.1667 147.5,80.8333 147.5,86.5C 134.946,81.8081 122.779,76.1414 111,69.5C 110.807,74.7503 110.307,79.917 109.5,85C 103.294,86.4709 97.1273,86.9709 91,86.5C 90.8078,84.4233 90.3078,82.4233 89.5,80.5C 79.3205,88.8262 69.4872,88.4929 60,79.5C 57.299,75.6276 55.799,71.2943 55.5,66.5C 54.0089,67.3481 53.3422,68.6814 53.5,70.5C 55.655,78.4385 57.155,86.4385 58,94.5C 51.699,97.5561 45.199,99.2227 38.5,99.5C 31.9724,85.2498 25.6391,70.9165 19.5,56.5C 17.2862,55.9594 15.1195,55.6261 13,55.5C 9.33333,49.5 5.66667,43.5 2,37.5C 1.33333,36.5 1.33333,35.5 2,34.5C 14.8455,24.6653 29.3455,20.4986 45.5,22C 55.8743,23.38 63.041,28.88 67,38.5C 67.7772,41.4294 67.6105,44.2628 66.5,47C 70.5835,45.3933 74.9168,44.2267 79.5,43.5C 82.1401,44.0951 84.8067,44.4285 87.5,44.5C 87.5,42.8333 87.5,41.1667 87.5,39.5C 85.8333,39.5 84.1667,39.5 82.5,39.5C 81.4312,34.8224 81.4312,30.1558 82.5,25.5C 90.5628,23.0346 98.5628,20.3679 106.5,17.5C 107.321,20.4465 107.821,23.4465 108,26.5C 109.346,23.13 111.179,20.13 113.5,17.5C 118.018,21.8521 122.684,26.0188 127.5,30C 133.956,30.548 136.456,27.7146 135,21.5C 140.747,14.9867 146.247,8.32007 151.5,1.5 Z"/></g>
<g><path style="opacity:1" fill="#e7b81e" d="M 150.5,9.5 C 154.194,10.0325 156.361,12.0325 157,15.5C 152.408,18.5473 147.574,21.214 142.5,23.5C 141.386,22.277 141.219,20.9437 142,19.5C 145.078,16.3213 147.912,12.988 150.5,9.5 Z"/></g>
<g><path style="opacity:1" fill="#eebd1f" d="M 241.5,14.5 C 247.203,13.7299 250.37,16.0632 251,21.5C 248.168,27.2005 244.502,27.8672 240,23.5C 239.068,20.1769 239.568,17.1769 241.5,14.5 Z"/></g>
<g><path style="opacity:1" fill="#f4c21d" d="M 185.5,16.5 C 186.376,16.3691 187.043,16.7025 187.5,17.5C 196.568,39.0431 205.234,60.7098 213.5,82.5C 211.192,82.9138 208.858,83.2471 206.5,83.5C 204.307,83.6738 202.473,83.0071 201,81.5C 197,72.1667 193,62.8333 189,53.5C 186.333,52.1667 183.667,52.1667 181,53.5C 177.805,61.3907 173.972,68.8907 169.5,76C 164.833,76.6667 160.167,76.6667 155.5,76C 157.628,72.2454 159.628,68.4121 161.5,64.5C 164.484,62.0164 167.318,59.3497 170,56.5C 170.134,53.7115 169.801,51.0449 169,48.5C 174.258,37.6498 179.758,26.9832 185.5,16.5 Z"/></g>
<g><path style="opacity:1" fill="#f4c21c" d="M 205.5,19.5 C 213.238,19.1439 220.905,19.6439 228.5,21C 235.004,24.5166 236.171,29.35 232,35.5C 227.292,40.3761 222.459,45.0427 217.5,49.5C 218.946,55.1229 219.779,60.7896 220,66.5C 217.435,68.1793 214.602,68.846 211.5,68.5C 208.813,57.0853 205.813,45.7519 202.5,34.5C 201.137,35.8793 200.137,35.7126 199.5,34C 198.496,30.2994 197.496,26.6328 196.5,23C 199.422,21.3971 202.422,20.2304 205.5,19.5 Z"/></g>
<g><path style="opacity:1" fill="#f3c11c" d="M 97.5,25.5 C 99.1667,25.5 100.833,25.5 102.5,25.5C 103.149,30.1358 103.649,34.8024 104,39.5C 107.361,34.4867 111.027,29.8201 115,25.5C 118.62,28.1168 121.953,31.1168 125,34.5C 125.667,35.5 125.667,36.5 125,37.5C 120.318,42.0148 115.818,46.6815 111.5,51.5C 115.181,53.7938 119.181,55.6271 123.5,57C 126.167,59.6667 128.833,62.3333 131.5,65C 134.717,66.6369 138.05,67.9702 141.5,69C 142.791,72.4553 142.791,75.9553 141.5,79.5C 129.589,73.6278 117.755,67.6278 106,61.5C 105.667,67.8333 105.333,74.1667 105,80.5C 101.906,81.5991 98.7396,82.0991 95.5,82C 94.8778,80.4309 94.5445,78.7642 94.5,77C 95.9086,72.1004 96.9086,67.1004 97.5,62C 97.2183,56.5991 95.385,51.7657 92,47.5C 91.5008,42.8452 91.3342,38.1785 91.5,33.5C 89.8333,33.5 88.1667,33.5 86.5,33.5C 86.2865,31.8561 86.6198,30.3561 87.5,29C 90.98,27.8974 94.3133,26.7308 97.5,25.5 Z"/></g>
<g><path style="opacity:1" fill="#f5c31c" d="M 33.5,26.5 C 41.4132,25.4162 48.7465,26.9162 55.5,31C 63.9296,38.6221 64.763,47.1221 58,56.5C 54.1198,60.0441 50.6198,63.8775 47.5,68C 49.1667,75 50.8333,82 52.5,89C 52.1667,89.8333 51.8333,90.6667 51.5,91.5C 48.8284,92.5031 46.1617,93.5031 43.5,94.5C 41.6473,93.8113 40.4807,92.478 40,90.5C 34.2749,76.7161 28.2749,63.0494 22,49.5C 19.867,48.5823 17.7004,48.4156 15.5,49C 12.0725,45.0013 10.2392,40.5013 10,35.5C 17.4197,31.197 25.2531,28.197 33.5,26.5 Z"/></g>
<g><path style="opacity:1" fill="#f3c21c" d="M 142.5,29.5 C 149.445,28.4706 155.612,30.1373 161,34.5C 161.667,35.8333 161.667,37.1667 161,38.5C 156.466,42.6994 152.299,47.1994 148.5,52C 152.372,51.9012 155.705,50.4012 158.5,47.5C 162.191,49.6486 164.358,52.6486 165,56.5C 157.327,62.961 148.494,65.461 138.5,64C 128.952,59.4 125.452,51.9 128,41.5C 131.541,35.78 136.374,31.78 142.5,29.5 Z"/></g>
<g><path style="opacity:1" fill="#3e598e" d="M 215.5,31.5 C 217.833,31.5 220.167,31.5 222.5,31.5C 221.685,35.159 219.519,37.8256 216,39.5C 215.058,36.7288 214.892,34.0621 215.5,31.5 Z"/></g>
<g><path style="opacity:1" fill="#f4c31c" d="M 246.5,31.5 C 248.256,32.5521 248.923,34.2188 248.5,36.5C 247.302,47.4799 246.302,58.4799 245.5,69.5C 241.452,69.6054 237.452,69.2721 233.5,68.5C 234.125,59.1249 235.125,49.7916 236.5,40.5C 235.5,40.5 234.5,40.5 233.5,40.5C 233.247,38.1727 233.914,36.1727 235.5,34.5C 239.048,33.0298 242.715,32.0298 246.5,31.5 Z"/></g>
<g><path style="opacity:1" fill="#77652e" d="M 246.5,31.5 C 247.209,30.596 248.209,30.2627 249.5,30.5C 249.795,32.7354 249.461,34.7354 248.5,36.5C 248.923,34.2188 248.256,32.5521 246.5,31.5 Z"/></g>
<g><path style="opacity:1" fill="#3d588e" d="M 141.5,37.5 C 145.167,37.1636 148.5,37.997 151.5,40C 148.016,44.4514 144.183,48.618 140,52.5C 135.051,46.8794 135.551,41.8794 141.5,37.5 Z"/></g>
<g><path style="opacity:1" fill="#3e588d" d="M 187.5,42.5 C 186.448,44.256 184.781,44.9227 182.5,44.5C 183.38,41.7378 184.546,39.0711 186,36.5C 186.505,38.5183 187.005,40.5183 187.5,42.5 Z"/></g>
<g><path style="opacity:0.953" fill="#25242b" d="M 142.5,40.5 C 143.873,40.3433 145.207,40.51 146.5,41C 144.288,43.0425 142.288,45.2092 140.5,47.5C 139.386,46.277 139.219,44.9437 140,43.5C 141.045,42.6266 141.878,41.6266 142.5,40.5 Z"/></g>
<g><path style="opacity:1" fill="#3a5a96" d="M 42.5,41.5 C 52.7742,42.3063 55.2742,47.3063 50,56.5C 48.0448,57.4533 46.3782,58.7866 45,60.5C 42.4471,54.6779 40.6138,48.6779 39.5,42.5C 40.791,42.7373 41.791,42.404 42.5,41.5 Z"/></g>
<g><path style="opacity:1" fill="#5f5437" d="M 187.5,42.5 C 188.404,43.209 188.737,44.209 188.5,45.5C 186.265,45.7947 184.265,45.4614 182.5,44.5C 184.781,44.9227 186.448,44.256 187.5,42.5 Z"/></g>
<g><path style="opacity:0.853" fill="#252329" d="M 44.5,45.5 C 49.466,46.7568 50.466,49.4235 47.5,53.5C 45.5989,51.2716 44.5989,48.6049 44.5,45.5 Z"/></g>
<g><path style="opacity:1" fill="#f0bf1d" d="M 75.5,47.5 C 90.1932,47.0311 96.0266,54.0311 93,68.5C 86.1417,81.234 76.475,84.234 64,77.5C 57.4545,63.5828 61.2878,53.5828 75.5,47.5 Z"/></g>
<g><path style="opacity:1" fill="#3a5b97" d="M 74.5,52.5 C 75.552,52.3505 76.552,52.5172 77.5,53C 74.7348,55.9663 75.0682,58.633 78.5,61C 81.7894,61.7464 84.2894,60.5797 86,57.5C 86.6933,62.9853 84.1933,65.9853 78.5,66.5C 72.2877,65.4271 70.121,61.7605 72,55.5C 73.045,54.6266 73.8783,53.6266 74.5,52.5 Z"/></g>
</svg>
